<svg width="64" height="64" viewBox="0 0 64 64" fill="none" xmlns="http://www.w3.org/2000/svg">
<path d="M61.18 26.5534L58.31 14.7534C58.2637 14.5655 58.1639 14.395 58.0226 14.2627C57.8813 14.1304 57.7046 14.042 57.5141 14.0081C57.3235 13.9742 57.1272 13.9964 56.949 14.0719C56.7707 14.1474 56.6182 14.273 56.51 14.4334L53.63 18.6834L24.36 4.10344C24.1682 4.00867 23.951 3.97793 23.7404 4.01573C23.5298 4.05353 23.3369 4.15788 23.19 4.31344L11.7 16.4834L4.45 12.8234C4.29777 12.7467 4.12846 12.7102 3.95814 12.7173C3.78783 12.7245 3.62216 12.775 3.47688 12.8642C3.3316 12.9534 3.21153 13.0782 3.12806 13.2268C3.0446 13.3755 3.00052 13.543 3 13.7134V21.5534C3.00056 21.7381 3.05224 21.919 3.14932 22.0761C3.2464 22.2332 3.38509 22.3603 3.55 22.4434L11.55 26.4434C11.7376 26.5395 11.9509 26.5739 12.1592 26.5416C12.3675 26.5092 12.5603 26.4119 12.71 26.2634L25.2 13.7634L49.13 25.3434L47.33 28.0134C47.2186 28.176 47.1576 28.3678 47.1549 28.5649C47.1521 28.762 47.2076 28.9554 47.3145 29.121C47.4213 29.2866 47.5747 29.417 47.7554 29.4957C47.9361 29.5744 48.136 29.598 48.33 29.5634L60.38 27.8134C60.5191 27.7906 60.6517 27.7387 60.7693 27.661C60.8869 27.5833 60.9867 27.4816 61.0623 27.3627C61.1378 27.2437 61.1873 27.1101 61.2076 26.9706C61.2279 26.8312 61.2185 26.689 61.18 26.5534Z" fill="black"/>
<path d="M56.32 43.9434C56.32 43.2234 56.66 41.4734 55.83 40.1034C54.83 38.4934 51.83 37.5734 50.06 36.8534C48 35.9834 43.7 31.0234 41.12 30.5534C36.77 29.7834 34.64 31.1734 32.06 30.9334C29.48 30.6934 29.34 30.1834 26.29 29.6834C22.1699 29.2675 18.0153 30.0049 14.29 31.8134C11.33 33.4634 7.00001 37.5534 6.70001 40.4634C6.63119 40.7925 6.64643 41.1335 6.74431 41.4551C6.84219 41.7767 7.01955 42.0685 7.26001 42.3034C7.626 42.5344 8.04477 42.6685 8.47689 42.693C8.90901 42.7175 9.34025 42.6316 9.73001 42.4434C9.51089 44.5952 9.60182 46.7674 10 48.8934C10.88 55.3234 10.23 54.5334 9.33001 59.3734C9.30335 59.5189 9.30933 59.6686 9.3475 59.8115C9.38568 59.9545 9.45509 60.0872 9.55075 60.2001C9.64641 60.3129 9.76593 60.4032 9.90068 60.4643C10.0354 60.5254 10.1821 60.5558 10.33 60.5534H21.75C21.899 60.5561 22.0466 60.5255 22.1823 60.4639C22.3179 60.4022 22.438 60.311 22.5338 60.1969C22.6297 60.0829 22.6988 59.9488 22.7362 59.8046C22.7736 59.6604 22.7783 59.5097 22.75 59.3634C22.47 57.9134 22.28 56.9534 20.9 56.1034C19.52 55.2534 19.37 55.8334 19.39 54.3134C19.489 53.3655 19.7213 52.4364 20.08 51.5534C23.9269 52.8623 28.1215 52.7056 31.86 51.1134C32.8687 54.3443 34.4062 57.3856 36.41 60.1134C36.5021 60.2394 36.6224 60.3422 36.7613 60.4134C36.9003 60.4846 37.0539 60.5223 37.21 60.5234H43.37C43.515 60.5251 43.6585 60.4952 43.7908 60.4358C43.923 60.3764 44.0408 60.289 44.1359 60.1797C44.2311 60.0703 44.3013 59.9415 44.3417 59.8023C44.3821 59.6631 44.3918 59.5167 44.37 59.3734C43.98 56.8534 41.46 55.9234 40.92 54.0934C40.38 52.2634 40.92 50.2034 41.47 48.0934C42.7378 47.5313 44.0529 47.0828 45.4 46.7534C46.94 46.7534 54.85 50.5734 55.94 50.6034C56.94 50.6034 57.86 49.6034 58.72 47.5234C58.7847 47.365 58.8076 47.1926 58.7866 47.0227C58.7656 46.8529 58.7013 46.6913 58.6 46.5534C57.67 45.5534 56.59 44.3234 56.32 43.9434Z" fill="black"/>
</svg>
