<svg width="64" height="64" viewBox="0 0 64 64" fill="none" xmlns="http://www.w3.org/2000/svg">
<path d="M60.35 5.76547L48.3 4.01547C48.106 3.98094 47.9061 4.00451 47.7254 4.08322C47.5447 4.16193 47.3913 4.29227 47.2845 4.45787C47.1776 4.62348 47.1221 4.81696 47.1249 5.01402C47.1276 5.21108 47.1885 5.40293 47.3 5.56547L49.1 8.23547L25.2 19.8155L12.71 7.31547C12.5615 7.16539 12.3692 7.06617 12.1609 7.03204C11.9525 6.99791 11.7386 7.03062 11.55 7.12547L3.54999 11.1255C3.38356 11.2093 3.24387 11.338 3.14669 11.4971C3.04951 11.6561 2.9987 11.8391 2.99999 12.0255V19.8655C3.00051 20.0359 3.04459 20.2034 3.12806 20.3521C3.21152 20.5007 3.3316 20.6255 3.47688 20.7147C3.62216 20.8039 3.78782 20.8544 3.95814 20.8616C4.12845 20.8687 4.29776 20.8322 4.44999 20.7555L11.7 17.0955L23.19 29.2655C23.3369 29.421 23.5298 29.5254 23.7404 29.5632C23.951 29.601 24.1682 29.5702 24.36 29.4755L53.63 14.8955L56.51 19.1455C56.6182 19.3059 56.7707 19.4315 56.9489 19.5071C57.1272 19.5826 57.3235 19.6047 57.5141 19.5708C57.7046 19.537 57.8813 19.4485 58.0226 19.3162C58.1638 19.1839 58.2637 19.0134 58.31 18.8255L61.18 6.99547C61.2135 6.85973 61.2183 6.71845 61.1938 6.58077C61.1694 6.44309 61.1164 6.31207 61.0381 6.19616C60.9599 6.08025 60.8583 5.98203 60.7397 5.90784C60.6212 5.83366 60.4884 5.78516 60.35 5.76547Z" fill="black"/>
<path d="M54.71 31.1355C54.07 30.2855 53.47 29.5255 52.9 28.8555C53.1523 28.6387 53.3927 28.4084 53.62 28.1655C54.6069 26.8614 55.0962 25.2481 55 23.6155H53C53.0996 24.7502 52.795 25.8836 52.14 26.8155C51.9612 27.0231 51.7637 27.2139 51.55 27.3855C50.9441 26.6902 50.1367 26.2009 49.24 25.9855C47.39 25.7755 46.24 27.5055 45.71 27.8455C43 27.7955 36.5 29.7255 30.47 31.6555H30.35C26.88 32.7655 22.15 31.8255 18.63 31.6555C15.5843 31.4978 12.5979 32.5388 10.31 34.5555C8.35 36.1155 6 39.7755 6 48.5555H8C7.96141 46.2034 8.19292 43.8547 8.69 41.5555C8.96549 43.441 9.38335 45.303 9.94 47.1255C9.88 47.4355 9.27 49.1255 8.73 50.5755C8.69062 50.6914 8.67036 50.813 8.67 50.9355L8.74 59.5555C8.74 59.8207 8.84536 60.0751 9.03289 60.2626C9.22043 60.4501 9.47478 60.5555 9.74 60.5555H13.74C13.8869 60.5576 14.0325 60.5274 14.1664 60.4668C14.3003 60.4063 14.4193 60.317 14.5147 60.2053C14.6102 60.0936 14.6799 59.9622 14.7188 59.8205C14.7578 59.6788 14.765 59.5303 14.74 59.3855C14.3579 57.3339 14.1107 55.2594 14 53.1755C14.07 52.1755 16.67 48.6955 17.82 46.9055C19.4812 48.018 21.3214 48.8366 23.26 49.3255C25.85 49.9155 30.86 49.6455 33.49 49.4355C33.65 50.7655 33.8 51.8255 33.88 52.6555C34.1959 55.0894 34.7075 57.4938 35.41 59.8455C35.4742 60.0581 35.6073 60.2432 35.7884 60.3718C35.9694 60.5003 36.1881 60.565 36.41 60.5555H40.54C40.7249 60.556 40.9063 60.5052 41.064 60.4088C41.2218 60.3124 41.3497 60.1741 41.4336 60.0094C41.5176 59.8447 41.5542 59.6599 41.5394 59.4756C41.5246 59.2913 41.4591 59.1147 41.35 58.9655C40.689 58.1255 40.1566 57.192 39.77 56.1955C39.77 55.1955 39.28 50.8855 39.55 48.8555C39.607 48.4496 39.6939 48.0485 39.81 47.6555C43.43 44.8155 46.2 42.3355 48.42 38.3555C50.53 39.1155 51.19 38.6455 52.75 37.4755C53.59 37.8746 54.501 38.1024 55.43 38.1455C55.71 38.0855 56.08 37.9955 57.77 35.9455C57.9249 35.7643 58.0101 35.5338 58.0101 35.2955C58.0101 35.0571 57.9249 34.8266 57.77 34.6455C56.6836 33.535 55.662 32.3631 54.71 31.1355Z" fill="black"/>
</svg>
